<?xml version="1.0" encoding="utf-8"?>
<!DOCTYPE svg PUBLIC "-//W3C//DTD SVG 1.1//EN" "http://www.w3.org/Graphics/SVG/1.1/DTD/svg11.dtd">
<svg height="512px" style="shape-rendering:geometricPrecision; text-rendering:geometricPrecision; image-rendering:optimizeQuality; fill-rule:evenodd; clip-rule:evenodd" version="1.1" width="512px" xmlns="http://www.w3.org/2000/svg" xmlns:xlink="http://www.w3.org/1999/xlink">
<g/>
<g><path d="M 212.5,65.5 C 236.204,62.4164 252.704,71.7497 262,93.5C 266.793,112.455 261.626,127.955 246.5,140C 223.969,152.886 204.469,149.386 188,129.5C 176.324,107.384 179.824,88.2178 198.5,72C 203.137,69.5111 207.804,67.3445 212.5,65.5 Z" fill="#c455db" style="opacity:1"/></g>
<g><path d="M 315.5,88.5 C 340.684,88.1586 356.184,100.159 362,124.5C 363.544,141.575 357.377,155.075 343.5,165C 320.175,176.793 300.675,172.293 285,151.5C 274.626,129.024 279.126,110.191 298.5,95C 304.02,92.11 309.686,89.9433 315.5,88.5 Z" fill="#c454db" style="opacity:1"/></g>
<g><path d="M 234.5,318.5 C 235.053,313.518 235.387,308.518 235.5,303.5C 236.388,300.946 236.721,298.279 236.5,295.5C 236.813,291.958 236.479,288.625 235.5,285.5C 235.431,276.729 233.764,268.395 230.5,260.5C 230.598,258.447 229.931,256.78 228.5,255.5C 226.63,250.094 223.963,245.094 220.5,240.5C 217.5,236.833 214.167,233.5 210.5,230.5C 205.109,224.776 199.109,219.776 192.5,215.5C 185.561,209.899 178.894,203.899 172.5,197.5C 168.833,192.167 165.167,186.833 161.5,181.5C 157.459,174.714 154.792,167.381 153.5,159.5C 152.558,154.195 152.391,148.861 153,143.5C 153.497,150.503 154.163,150.837 155,144.5C 155.497,151.503 156.163,151.837 157,145.5C 157.906,148.121 158.406,147.954 158.5,145C 156.943,143.851 156.11,141.684 156,138.5C 155.667,140.167 155.333,141.833 155,143.5C 153.889,136.553 153.389,129.886 153.5,123.5C 157.073,117.359 160.906,111.359 165,105.5C 158.902,132.538 166.069,155.371 186.5,174C 200.152,183.083 212.986,193.25 225,204.5C 245.791,230.215 252.125,259.215 244,291.5C 241.894,300.991 238.727,309.991 234.5,318.5 Z" fill="#c801f4" style="opacity:1"/></g>
<g><path d="M 153.5,123.5 C 153.389,129.886 153.889,136.553 155,143.5C 155.333,141.833 155.667,140.167 156,138.5C 156.11,141.684 156.943,143.851 158.5,145C 158.406,147.954 157.906,148.121 157,145.5C 156.163,151.837 155.497,151.503 155,144.5C 154.163,150.837 153.497,150.503 153,143.5C 152.391,148.861 152.558,154.195 153.5,159.5C 151.51,160.999 149.177,161.832 146.5,162C 147.167,162.333 147.833,162.667 148.5,163C 147.333,163.5 146.5,164.333 146,165.5C 145.667,164.5 145.333,163.5 145,162.5C 144.501,166.486 144.334,170.486 144.5,174.5C 143.017,177.433 141.683,180.433 140.5,183.5C 140.565,183.062 140.399,182.728 140,182.5C 137.933,185.802 135.933,186.135 134,183.5C 133.667,184.167 133.333,184.833 133,185.5C 132.333,184.167 131.667,184.167 131,185.5C 130.667,184.833 130.333,184.167 130,183.5C 129.808,185.577 129.308,187.577 128.5,189.5C 127.5,187.833 126.167,186.5 124.5,185.5C 123.534,183.604 123.201,181.604 123.5,179.5C 130.925,159.309 140.925,140.643 153.5,123.5 Z" fill="#bb01e6" style="opacity:1"/></g>
<g><path d="M 379.5,136.5 C 377.59,137.684 377.257,139.184 378.5,141C 376.716,148.566 375.882,156.399 376,164.5C 375.062,170.811 373.229,176.811 370.5,182.5C 368.339,187.492 365.672,192.159 362.5,196.5C 356.473,204.527 349.473,211.527 341.5,217.5C 334.437,222.025 327.771,227.025 321.5,232.5C 316.514,236.155 311.847,240.155 307.5,244.5C 296.311,253.352 287.311,264.019 280.5,276.5C 275.882,282.067 272.548,288.4 270.5,295.5C 266.573,303.632 264.24,312.299 263.5,321.5C 260.931,336.675 260.931,352.008 263.5,367.5C 263.489,369.045 263.156,370.378 262.5,371.5C 255.606,342.039 254.773,312.372 260,282.5C 267.954,250.227 285.12,224.06 311.5,204C 322.5,196.333 333.5,188.667 344.5,181C 363.892,165.505 372.392,145.339 370,120.5C 373.441,125.724 376.608,131.057 379.5,136.5 Z" fill="#c801f5" style="opacity:1"/></g>
<g><path d="M 153.5,159.5 C 154.792,167.381 157.459,174.714 161.5,181.5C 160.842,182.398 160.176,183.398 159.5,184.5C 154.953,183.474 150.953,184.474 147.5,187.5C 145.882,183.425 144.882,179.092 144.5,174.5C 144.334,170.486 144.501,166.486 145,162.5C 145.333,163.5 145.667,164.5 146,165.5C 146.5,164.333 147.333,163.5 148.5,163C 147.833,162.667 147.167,162.333 146.5,162C 149.177,161.832 151.51,160.999 153.5,159.5 Z" fill="#9d00cb" style="opacity:1"/></g>
<g><path d="M 379.5,136.5 C 391.583,154.664 401.583,173.997 409.5,194.5C 408.962,196.117 408.629,197.784 408.5,199.5C 406.339,199.174 404.506,198.174 403,196.5C 401.333,196.5 399.667,196.5 398,196.5C 397.026,198.878 396.359,198.544 396,195.5C 393.667,196.5 391.333,197.5 389,198.5C 388.814,194.484 388.814,190.484 389,186.5C 386.978,187.786 384.811,188.786 382.5,189.5C 381.029,188.619 380.196,187.286 380,185.5C 379.667,186.167 379.333,186.833 379,187.5C 377.163,187.335 375.163,186.668 373,185.5C 372.667,185.833 372.333,186.167 372,186.5C 371.79,184.942 371.29,183.609 370.5,182.5C 373.229,176.811 375.062,170.811 376,164.5C 375.882,156.399 376.716,148.566 378.5,141C 377.257,139.184 377.59,137.684 379.5,136.5 Z" fill="#af00e0" style="opacity:1"/></g>
<g><path d="M 144.5,174.5 C 144.882,179.092 145.882,183.425 147.5,187.5C 148.065,191.537 149.399,195.203 151.5,198.5C 153.326,203.484 155.659,208.151 158.5,212.5C 161.539,218.587 165.539,223.921 170.5,228.5C 174.559,233.562 179.226,237.895 184.5,241.5C 185.6,242.605 186.267,243.938 186.5,245.5C 177.319,254.549 173.819,265.549 176,278.5C 178.268,289.369 182.935,299.036 190,307.5C 200.965,320.133 212.298,332.467 224,344.5C 248.074,373.387 259.408,406.721 258,444.5C 255.724,438.296 253.224,432.296 250.5,426.5C 248.768,415.639 245.435,405.305 240.5,395.5C 232.183,378.842 220.85,364.509 206.5,352.5C 193.547,341.18 181.214,329.18 169.5,316.5C 159.988,304.813 151.988,292.147 145.5,278.5C 141.31,270.265 138.31,261.599 136.5,252.5C 134.978,246.953 134.312,241.286 134.5,235.5C 134.271,225.468 134.604,215.468 135.5,205.5C 137.154,198.285 138.821,190.951 140.5,183.5C 141.683,180.433 143.017,177.433 144.5,174.5 Z" fill="#c801f5" style="opacity:1"/></g>
<g><path d="M 161.5,181.5 C 165.167,186.833 168.833,192.167 172.5,197.5C 168.672,199.237 164.839,200.57 161,201.5C 158.994,199.998 157.328,200.331 156,202.5C 153.957,201.421 152.624,199.754 152,197.5C 151.601,197.728 151.435,198.062 151.5,198.5C 149.399,195.203 148.065,191.537 147.5,187.5C 150.953,184.474 154.953,183.474 159.5,184.5C 160.176,183.398 160.842,182.398 161.5,181.5 Z" fill="#8900b4" style="opacity:1"/></g>
<g><path d="M 123.5,179.5 C 123.201,181.604 123.534,183.604 124.5,185.5C 126.167,186.5 127.5,187.833 128.5,189.5C 129.308,187.577 129.808,185.577 130,183.5C 130.333,184.167 130.667,184.833 131,185.5C 131.667,184.167 132.333,184.167 133,185.5C 133.333,184.833 133.667,184.167 134,183.5C 135.933,186.135 137.933,185.802 140,182.5C 140.399,182.728 140.565,183.062 140.5,183.5C 138.821,190.951 137.154,198.285 135.5,205.5C 135.628,203.345 135.128,201.345 134,199.5C 132.467,199.944 130.967,200.277 129.5,200.5C 128.459,198.009 127.626,198.009 127,200.5C 126.667,199.833 126.333,199.167 126,198.5C 125.667,199.833 125.333,201.167 125,202.5C 124.486,199.972 123.32,197.805 121.5,196C 121.833,195.667 122.167,195.333 122.5,195C 121.552,194.517 120.552,194.351 119.5,194.5C 119.5,193.167 119.5,191.833 119.5,190.5C 120.065,186.463 121.399,182.797 123.5,179.5 Z" fill="#a200cf" style="opacity:1"/></g>
<g><path d="M 370.5,182.5 C 371.29,183.609 371.79,184.942 372,186.5C 372.333,186.167 372.667,185.833 373,185.5C 375.163,186.668 377.163,187.335 379,187.5C 379.333,186.833 379.667,186.167 380,185.5C 380.196,187.286 381.029,188.619 382.5,189.5C 384.811,188.786 386.978,187.786 389,186.5C 388.814,190.484 388.814,194.484 389,198.5C 391.333,197.5 393.667,196.5 396,195.5C 396.359,198.544 397.026,198.878 398,196.5C 399.667,196.5 401.333,196.5 403,196.5C 404.506,198.174 406.339,199.174 408.5,199.5C 408.629,197.784 408.962,196.117 409.5,194.5C 412.412,200.799 414.412,207.465 415.5,214.5C 415.664,217.187 415.497,219.854 415,222.5C 411.775,222.564 408.442,222.231 405,221.5C 403.909,223.346 402.576,224.013 401,223.5C 400.667,222.833 400.333,222.167 400,221.5C 399.581,222.672 398.915,223.672 398,224.5C 395.785,224.322 393.618,223.322 391.5,221.5C 389.936,217.313 388.436,212.98 387,208.5C 386.583,207.244 385.75,206.577 384.5,206.5C 385.774,204.007 386.44,201.341 386.5,198.5C 381.469,197.884 376.636,197.551 372,197.5C 371.333,198.167 370.667,198.833 370,199.5C 367.434,198.639 364.934,197.639 362.5,196.5C 365.672,192.159 368.339,187.492 370.5,182.5 Z" fill="#9b00cb" style="opacity:1"/></g>
<g><path d="M 172.5,197.5 C 178.894,203.899 185.561,209.899 192.5,215.5C 189.418,217.069 186.585,216.735 184,214.5C 183.333,215.167 182.667,215.833 182,216.5C 177.059,215.816 172.225,215.816 167.5,216.5C 165.971,216.529 164.804,217.196 164,218.5C 162.883,217.051 162.216,215.384 162,213.5C 161,212.833 160,212.167 159,211.5C 158.601,211.728 158.435,212.062 158.5,212.5C 155.659,208.151 153.326,203.484 151.5,198.5C 151.435,198.062 151.601,197.728 152,197.5C 152.624,199.754 153.957,201.421 156,202.5C 157.328,200.331 158.994,199.998 161,201.5C 164.839,200.57 168.672,199.237 172.5,197.5 Z" fill="#76009d" style="opacity:1"/></g>
<g><path d="M 362.5,196.5 C 364.934,197.639 367.434,198.639 370,199.5C 370.667,198.833 371.333,198.167 372,197.5C 376.636,197.551 381.469,197.884 386.5,198.5C 386.44,201.341 385.774,204.007 384.5,206.5C 383.59,209.992 381.924,212.992 379.5,215.5C 378.518,216.141 377.518,216.807 376.5,217.5C 365.354,216.459 353.688,216.459 341.5,217.5C 349.473,211.527 356.473,204.527 362.5,196.5 Z" fill="#8400b1" style="opacity:1"/></g>
<g><path d="M 119.5,190.5 C 119.5,191.833 119.5,193.167 119.5,194.5C 120.552,194.351 121.552,194.517 122.5,195C 122.167,195.333 121.833,195.667 121.5,196C 123.32,197.805 124.486,199.972 125,202.5C 125.333,201.167 125.667,199.833 126,198.5C 126.333,199.167 126.667,199.833 127,200.5C 127.626,198.009 128.459,198.009 129.5,200.5C 130.967,200.277 132.467,199.944 134,199.5C 135.128,201.345 135.628,203.345 135.5,205.5C 134.604,215.468 134.271,225.468 134.5,235.5C 133.539,233.735 133.205,231.735 133.5,229.5C 133.666,225.486 133.499,221.486 133,217.5C 131.111,218.089 129.111,218.423 127,218.5C 127.979,216.721 127.646,215.055 126,213.5C 124.545,212.443 122.878,212.443 121,213.5C 120.683,211.699 120.016,211.366 119,212.5C 118.781,211.062 118.281,209.729 117.5,208.5C 116.808,209.025 116.308,209.692 116,210.5C 115.51,209.207 115.343,207.873 115.5,206.5C 115.917,200.83 117.251,195.497 119.5,190.5 Z" fill="#8f00bb" style="opacity:1"/></g>
<g><path d="M 379.5,215.5 C 377.913,219.683 375.579,223.35 372.5,226.5C 372.265,225.903 371.765,225.57 371,225.5C 365.845,227.796 360.512,229.462 355,230.5C 353.667,229.833 352.333,229.167 351,228.5C 346.816,229.268 342.649,230.268 338.5,231.5C 337.558,231.392 336.725,231.059 336,230.5C 335.21,232.79 333.876,233.123 332,231.5C 330.527,231.903 329.194,232.57 328,233.5C 325.861,233.457 323.694,233.123 321.5,232.5C 327.771,227.025 334.437,222.025 341.5,217.5C 353.688,216.459 365.354,216.459 376.5,217.5C 377.518,216.807 378.518,216.141 379.5,215.5 Z" fill="#72009c" style="opacity:1"/></g>
<g><path d="M 115.5,206.5 C 115.343,207.873 115.51,209.207 116,210.5C 116.308,209.692 116.808,209.025 117.5,208.5C 118.281,209.729 118.781,211.062 119,212.5C 120.016,211.366 120.683,211.699 121,213.5C 122.878,212.443 124.545,212.443 126,213.5C 127.646,215.055 127.979,216.721 127,218.5C 129.111,218.423 131.111,218.089 133,217.5C 133.499,221.486 133.666,225.486 133.5,229.5C 132.839,230.718 132.172,232.051 131.5,233.5C 130.158,232.098 129.324,232.431 129,234.5C 127.667,233.833 126.667,232.833 126,231.5C 125.667,232.167 125.333,232.833 125,233.5C 124.333,232.167 123.667,232.167 123,233.5C 122.424,230.876 121.09,230.209 119,231.5C 118,230.5 117,229.5 116,228.5C 115.798,230.256 115.298,231.922 114.5,233.5C 114.167,233.333 113.833,233.167 113.5,233C 113.735,228.292 113.735,223.459 113.5,218.5C 113.344,214.236 114.011,210.236 115.5,206.5 Z" fill="#7800a0" style="opacity:1"/></g>
<g><path d="M 415.5,214.5 C 416.795,218.267 417.461,222.267 417.5,226.5C 417.579,229.271 417.079,231.937 416,234.5C 415.667,232.833 415.333,231.167 415,229.5C 414.692,230.308 414.192,230.975 413.5,231.5C 411.612,231.945 409.612,231.945 407.5,231.5C 406.353,231.818 405.519,232.484 405,233.5C 404,232.5 403,231.5 402,230.5C 401.773,233.06 400.44,234.726 398,235.5C 397,234.167 396,234.167 395,235.5C 394.79,233.942 394.29,232.609 393.5,231.5C 392.454,228.272 391.788,224.939 391.5,221.5C 393.618,223.322 395.785,224.322 398,224.5C 398.915,223.672 399.581,222.672 400,221.5C 400.333,222.167 400.667,222.833 401,223.5C 402.576,224.013 403.909,223.346 405,221.5C 408.442,222.231 411.775,222.564 415,222.5C 415.497,219.854 415.664,217.187 415.5,214.5 Z" fill="#8600b3" style="opacity:1"/></g>
<g><path d="M 192.5,215.5 C 199.109,219.776 205.109,224.776 210.5,230.5C 208.44,232.154 205.94,233.154 203,233.5C 202.5,233 202,232.5 201.5,232C 199.5,231.833 197.5,231.667 195.5,231.5C 189.471,232.229 183.637,232.562 178,232.5C 175.627,230.88 173.127,229.546 170.5,228.5C 165.539,223.921 161.539,218.587 158.5,212.5C 158.435,212.062 158.601,211.728 159,211.5C 160,212.167 161,212.833 162,213.5C 162.216,215.384 162.883,217.051 164,218.5C 164.804,217.196 165.971,216.529 167.5,216.5C 172.225,215.816 177.059,215.816 182,216.5C 182.667,215.833 183.333,215.167 184,214.5C 186.585,216.735 189.418,217.069 192.5,215.5 Z" fill="#5f0081" style="opacity:1"/></g>
<g><path d="M 384.5,206.5 C 385.75,206.577 386.583,207.244 387,208.5C 388.436,212.98 389.936,217.313 391.5,221.5C 391.788,224.939 392.454,228.272 393.5,231.5C 393.833,234.833 394.167,238.167 394.5,241.5C 394.623,248.529 394.29,255.529 393.5,262.5C 392.553,271.246 390.219,279.579 386.5,287.5C 374.924,311.75 357.924,331.417 335.5,346.5C 310.42,362.746 291.587,384.413 279,411.5C 276.701,417.571 274.535,423.571 272.5,429.5C 274.58,403.025 284.08,379.691 301,359.5C 312.04,347.462 322.707,335.129 333,322.5C 340.308,312.586 345.308,301.586 348,289.5C 351.124,277.051 347.958,266.717 338.5,258.5C 340.142,257.197 341.809,255.864 343.5,254.5C 349.917,249.627 355.917,244.293 361.5,238.5C 365.876,235.126 369.542,231.126 372.5,226.5C 375.579,223.35 377.913,219.683 379.5,215.5C 381.924,212.992 383.59,209.992 384.5,206.5 Z" fill="#c901f6" style="opacity:1"/></g>
<g><path d="M 372.5,226.5 C 369.542,231.126 365.876,235.126 361.5,238.5C 357.651,238.019 355.651,239.686 355.5,243.5C 351.498,244.937 347.331,245.604 343,245.5C 336.209,245.489 329.876,245.156 324,244.5C 323.626,245.416 323.126,246.25 322.5,247C 320.833,247.167 319.167,247.333 317.5,247.5C 315.127,247.025 312.961,247.025 311,247.5C 309.482,246.837 308.315,245.837 307.5,244.5C 311.847,240.155 316.514,236.155 321.5,232.5C 323.694,233.123 325.861,233.457 328,233.5C 329.194,232.57 330.527,231.903 332,231.5C 333.876,233.123 335.21,232.79 336,230.5C 336.725,231.059 337.558,231.392 338.5,231.5C 342.649,230.268 346.816,229.268 351,228.5C 352.333,229.167 353.667,229.833 355,230.5C 360.512,229.462 365.845,227.796 371,225.5C 371.765,225.57 372.265,225.903 372.5,226.5 Z" fill="#620087" style="opacity:1"/></g>
<g><path d="M 417.5,226.5 C 418.473,228.948 418.806,231.615 418.5,234.5C 418.5,238.833 418.5,243.167 418.5,247.5C 417.542,247.047 416.708,246.381 416,245.5C 415.333,248.167 414.667,248.167 414,245.5C 412.667,246.167 411.667,247.167 411,248.5C 409.16,247.167 408.66,247.334 409.5,249C 407.598,249.199 406.098,250.033 405,251.5C 403.251,250.701 401.918,251.368 401,253.5C 400.259,252.359 399.425,252.359 398.5,253.5C 397.833,253.167 397.167,252.833 396.5,252.5C 395.833,248.687 395.166,245.021 394.5,241.5C 394.167,238.167 393.833,234.833 393.5,231.5C 394.29,232.609 394.79,233.942 395,235.5C 396,234.167 397,234.167 398,235.5C 400.44,234.726 401.773,233.06 402,230.5C 403,231.5 404,232.5 405,233.5C 405.519,232.484 406.353,231.818 407.5,231.5C 409.612,231.945 411.612,231.945 413.5,231.5C 414.192,230.975 414.692,230.308 415,229.5C 415.333,231.167 415.667,232.833 416,234.5C 417.079,231.937 417.579,229.271 417.5,226.5 Z" fill="#7600a0" style="opacity:1"/></g>
<g><path d="M 170.5,228.5 C 173.127,229.546 175.627,230.88 178,232.5C 183.637,232.562 189.471,232.229 195.5,231.5C 197.5,231.667 199.5,231.833 201.5,232C 202,232.5 202.5,233 203,233.5C 205.94,233.154 208.44,232.154 210.5,230.5C 214.167,233.5 217.5,236.833 220.5,240.5C 219.904,241.935 219.904,243.602 220.5,245.5C 210.474,245.554 200.474,245.054 190.5,244C 190.833,243.667 191.167,243.333 191.5,243C 190.234,242.691 189.067,242.191 188,241.5C 187.014,242.171 185.847,242.171 184.5,241.5C 179.226,237.895 174.559,233.562 170.5,228.5 Z" fill="#470064" style="opacity:1"/></g>
<g><path d="M 113.5,218.5 C 113.735,223.459 113.735,228.292 113.5,233C 113.833,233.167 114.167,233.333 114.5,233.5C 115.298,231.922 115.798,230.256 116,228.5C 117,229.5 118,230.5 119,231.5C 121.09,230.209 122.424,230.876 123,233.5C 123.667,232.167 124.333,232.167 125,233.5C 125.333,232.833 125.667,232.167 126,231.5C 126.667,232.833 127.667,233.833 129,234.5C 129.324,232.431 130.158,232.098 131.5,233.5C 132.172,232.051 132.839,230.718 133.5,229.5C 133.205,231.735 133.539,233.735 134.5,235.5C 134.312,241.286 134.978,246.953 136.5,252.5C 135.698,253.952 135.198,255.618 135,257.5C 133.192,257.112 131.525,257.112 130,257.5C 129.552,255.776 128.718,255.109 127.5,255.5C 128.609,254.035 128.109,253.035 126,252.5C 124.984,253.634 124.317,253.301 124,251.5C 122.984,252.634 122.317,252.301 122,250.5C 121.667,250.833 121.333,251.167 121,251.5C 120.667,249.833 120.333,248.167 120,246.5C 118.251,247.299 116.918,246.632 116,244.5C 115,244.5 114,244.5 113,244.5C 112.501,238.843 112.334,233.176 112.5,227.5C 112.19,224.287 112.523,221.287 113.5,218.5 Z" fill="#600083" style="opacity:1"/></g>
<g><path d="M 220.5,240.5 C 223.963,245.094 226.63,250.094 228.5,255.5C 223.903,256.404 219.403,257.07 215,257.5C 212.133,255.094 208.967,254.427 205.5,255.5C 203.307,255.281 201.307,254.615 199.5,253.5C 195.306,250.571 190.973,247.905 186.5,245.5C 186.267,243.938 185.6,242.605 184.5,241.5C 185.847,242.171 187.014,242.171 188,241.5C 189.067,242.191 190.234,242.691 191.5,243C 191.167,243.333 190.833,243.667 190.5,244C 200.474,245.054 210.474,245.554 220.5,245.5C 219.904,243.602 219.904,241.935 220.5,240.5 Z" fill="#2b0140" style="opacity:1"/></g>
<g><path d="M 394.5,241.5 C 395.166,245.021 395.833,248.687 396.5,252.5C 397.167,252.833 397.833,253.167 398.5,253.5C 399.425,252.359 400.259,252.359 401,253.5C 401.918,251.368 403.251,250.701 405,251.5C 406.098,250.033 407.598,249.199 409.5,249C 408.66,247.334 409.16,247.167 411,248.5C 411.667,247.167 412.667,246.167 414,245.5C 414.667,248.167 415.333,248.167 416,245.5C 416.708,246.381 417.542,247.047 418.5,247.5C 419.045,250.998 418.212,253.998 416,256.5C 414.092,253.668 413.259,254.001 413.5,257.5C 411.799,257.966 410.299,257.966 409,257.5C 408.683,259.301 408.016,259.634 407,258.5C 406.085,259.328 405.419,260.328 405,261.5C 404,261.5 403,261.5 402,261.5C 400.478,264.224 398.311,266.224 395.5,267.5C 394.83,265.709 394.163,264.042 393.5,262.5C 394.29,255.529 394.623,248.529 394.5,241.5 Z" fill="#65008c" style="opacity:1"/></g>
<g><path d="M 112.5,227.5 C 112.334,233.176 112.501,238.843 113,244.5C 114,244.5 115,244.5 116,244.5C 116.918,246.632 118.251,247.299 120,246.5C 120.333,248.167 120.667,249.833 121,251.5C 121.333,251.167 121.667,250.833 122,250.5C 122.317,252.301 122.984,252.634 124,251.5C 124.317,253.301 124.984,253.634 126,252.5C 128.109,253.035 128.609,254.035 127.5,255.5C 128.718,255.109 129.552,255.776 130,257.5C 131.525,257.112 133.192,257.112 135,257.5C 135.198,255.618 135.698,253.952 136.5,252.5C 138.31,261.599 141.31,270.265 145.5,278.5C 144.347,279.313 144.347,280.313 145.5,281.5C 141.94,282.846 138.773,282.179 136,279.5C 135.667,279.833 135.333,280.167 135,280.5C 134.641,277.456 133.974,277.122 133,279.5C 132.89,277.152 131.723,275.652 129.5,275C 129.833,274.667 130.167,274.333 130.5,274C 128.246,273.376 126.579,272.043 125.5,270C 127.007,269.163 127.507,267.996 127,266.5C 124.246,268.074 121.913,267.408 120,264.5C 119.586,264.957 119.086,265.291 118.5,265.5C 116.799,261.194 114.799,257.194 112.5,253.5C 111.274,244.685 111.274,236.019 112.5,227.5 Z" fill="#450062" style="opacity:1"/></g>
<g><path d="M 334.5,260.5 C 333.421,262.543 331.754,263.876 329.5,264.5C 325.008,265.096 320.508,264.763 316,263.5C 315.25,264.126 314.416,264.626 313.5,265C 312.363,268.784 312.363,272.618 313.5,276.5C 310.612,276.22 309.112,277.553 309,280.5C 306.963,282.706 304.797,284.706 302.5,286.5C 303.361,282.408 304.695,278.575 306.5,275C 305.405,272.731 305.739,270.564 307.5,268.5C 307.055,265.945 307.055,263.278 307.5,260.5C 316.143,260.231 325.143,260.231 334.5,260.5 Z" fill="#1e0031" style="opacity:1"/></g>
<g><path d="M 199.5,253.5 C 201.307,254.615 203.307,255.281 205.5,255.5C 208.967,254.427 212.133,255.094 215,257.5C 219.403,257.07 223.903,256.404 228.5,255.5C 229.931,256.78 230.598,258.447 230.5,260.5C 230.5,262.167 230.5,263.833 230.5,265.5C 228.193,265.014 226.027,265.014 224,265.5C 223,264.833 222,264.167 221,263.5C 218.597,263.796 216.097,264.296 213.5,265C 210.568,261.558 207.235,258.725 203.5,256.5C 201.596,256.262 200.262,255.262 199.5,253.5 Z" fill="#150022" style="opacity:1"/></g>
<g><path d="M 343.5,254.5 C 341.809,255.864 340.142,257.197 338.5,258.5C 337.395,259.6 336.062,260.267 334.5,260.5C 325.143,260.231 316.143,260.231 307.5,260.5C 307.055,263.278 307.055,265.945 307.5,268.5C 305.739,270.564 305.405,272.731 306.5,275C 304.695,278.575 303.361,282.408 302.5,286.5C 301.075,287.922 300.075,289.589 299.5,291.5C 295.803,296.191 292.136,300.858 288.5,305.5C 288.714,303.856 288.38,302.356 287.5,301C 288,300.5 288.5,300 289,299.5C 289.377,295.981 289.877,292.481 290.5,289C 289.318,286.31 289.984,283.976 292.5,282C 292.167,281.667 291.833,281.333 291.5,281C 295.17,279.145 295.836,276.811 293.5,274C 294.773,271.807 295.106,269.64 294.5,267.5C 295.816,264.205 297.649,261.205 300,258.5C 300.49,257.207 300.657,255.873 300.5,254.5C 311.777,255.432 322.777,255.932 333.5,256C 336.697,253.631 340.03,253.131 343.5,254.5 Z" fill="#2e0146" style="opacity:1"/></g>
<g><path d="M 329.5,264.5 C 318.929,272.731 308.929,281.731 299.5,291.5C 300.075,289.589 301.075,287.922 302.5,286.5C 304.797,284.706 306.963,282.706 309,280.5C 309.112,277.553 310.612,276.22 313.5,276.5C 312.363,272.618 312.363,268.784 313.5,265C 314.416,264.626 315.25,264.126 316,263.5C 320.508,264.763 325.008,265.096 329.5,264.5 Z" fill="#12061d" style="opacity:1"/></g>
<g><path d="M 418.5,234.5 C 419.759,243.025 419.759,251.692 418.5,260.5C 416.989,263.544 416.322,266.878 416.5,270.5C 415.5,270.5 414.5,270.5 413.5,270.5C 413.709,272.714 412.876,274.381 411,275.5C 408.455,276.738 405.955,278.071 403.5,279.5C 402.914,279.291 402.414,278.957 402,278.5C 401.365,279.966 400.531,281.3 399.5,282.5C 396.834,283.039 394.667,284.372 393,286.5C 392.667,286.167 392.333,285.833 392,285.5C 390.933,286.191 389.766,286.691 388.5,287C 389.711,287.893 389.711,288.726 388.5,289.5C 387.818,288.757 387.151,288.091 386.5,287.5C 390.219,279.579 392.553,271.246 393.5,262.5C 394.163,264.042 394.83,265.709 395.5,267.5C 398.311,266.224 400.478,264.224 402,261.5C 403,261.5 404,261.5 405,261.5C 405.419,260.328 406.085,259.328 407,258.5C 408.016,259.634 408.683,259.301 409,257.5C 410.299,257.966 411.799,257.966 413.5,257.5C 413.259,254.001 414.092,253.668 416,256.5C 418.212,253.998 419.045,250.998 418.5,247.5C 418.5,243.167 418.5,238.833 418.5,234.5 Z" fill="#4d006f" style="opacity:1"/></g>
<g><path d="M 203.5,256.5 C 207.235,258.725 210.568,261.558 213.5,265C 216.097,264.296 218.597,263.796 221,263.5C 222,264.167 223,264.833 224,265.5C 226.027,265.014 228.193,265.014 230.5,265.5C 230.5,263.833 230.5,262.167 230.5,260.5C 233.764,268.395 235.431,276.729 235.5,285.5C 234.451,285.084 233.951,283.084 234,279.5C 233.517,280.448 233.351,281.448 233.5,282.5C 230.619,282.698 228.619,284.198 227.5,287C 228.233,288.766 228.567,290.599 228.5,292.5C 226.101,285.035 222.601,278.035 218,271.5C 212.963,266.631 208.13,261.631 203.5,256.5 Z" fill="#06020d" style="opacity:1"/></g>
<g><path d="M 361.5,238.5 C 355.917,244.293 349.917,249.627 343.5,254.5C 340.03,253.131 336.697,253.631 333.5,256C 322.777,255.932 311.777,255.432 300.5,254.5C 300.657,255.873 300.49,257.207 300,258.5C 297.649,261.205 295.816,264.205 294.5,267.5C 295.106,269.64 294.773,271.807 293.5,274C 295.836,276.811 295.17,279.145 291.5,281C 291.833,281.333 292.167,281.667 292.5,282C 289.984,283.976 289.318,286.31 290.5,289C 289.877,292.481 289.377,295.981 289,299.5C 288.5,300 288,300.5 287.5,301C 288.38,302.356 288.714,303.856 288.5,305.5C 286.169,309.479 283.836,313.479 281.5,317.5C 281.297,315.956 280.63,314.622 279.5,313.5C 280.132,310.282 280.465,307.116 280.5,304C 279.833,302 279.167,300 278.5,298C 279,297.5 279.5,297 280,296.5C 280.236,294.236 280.736,292.069 281.5,290C 280.646,288.119 280.979,286.286 282.5,284.5C 281.808,282.665 282.142,280.832 283.5,279C 282.309,278.302 281.309,277.469 280.5,276.5C 287.311,264.019 296.311,253.352 307.5,244.5C 308.315,245.837 309.482,246.837 311,247.5C 312.961,247.025 315.127,247.025 317.5,247.5C 319.167,247.333 320.833,247.167 322.5,247C 323.126,246.25 323.626,245.416 324,244.5C 329.876,245.156 336.209,245.489 343,245.5C 347.331,245.604 351.498,244.937 355.5,243.5C 355.651,239.686 357.651,238.019 361.5,238.5 Z" fill="#430062" style="opacity:1"/></g>
<g><path d="M 280.5,276.5 C 281.309,277.469 282.309,278.302 283.5,279C 282.142,280.832 281.808,282.665 282.5,284.5C 280.979,286.286 280.646,288.119 281.5,290C 280.736,292.069 280.236,294.236 280,296.5C 279.5,297 279,297.5 278.5,298C 279.167,300 279.833,302 280.5,304C 280.465,307.116 280.132,310.282 279.5,313.5C 280.63,314.622 281.297,315.956 281.5,317.5C 280.167,320.167 278.833,322.833 277.5,325.5C 277.747,322.495 276.747,319.995 274.5,318C 274.84,315 274.173,312 272.5,309C 272.833,308.667 273.167,308.333 273.5,308C 273.086,303.922 272.086,299.756 270.5,295.5C 272.548,288.4 275.882,282.067 280.5,276.5 Z" fill="#540178" style="opacity:1"/></g>
<g><path d="M 235.5,285.5 C 236.479,288.625 236.813,291.958 236.5,295.5C 235.069,295.119 234.236,294.119 234,292.5C 233.586,292.957 233.086,293.291 232.5,293.5C 231.509,297.445 231.176,301.445 231.5,305.5C 230.057,301.385 229.057,297.052 228.5,292.5C 228.567,290.599 228.233,288.766 227.5,287C 228.619,284.198 230.619,282.698 233.5,282.5C 233.351,281.448 233.517,280.448 234,279.5C 233.951,283.084 234.451,285.084 235.5,285.5 Z" fill="#180126" style="opacity:1"/></g>
<g><path d="M 112.5,253.5 C 114.799,257.194 116.799,261.194 118.5,265.5C 119.086,265.291 119.586,264.957 120,264.5C 121.913,267.408 124.246,268.074 127,266.5C 127.507,267.996 127.007,269.163 125.5,270C 126.579,272.043 128.246,273.376 130.5,274C 130.167,274.333 129.833,274.667 129.5,275C 131.723,275.652 132.89,277.152 133,279.5C 133.974,277.122 134.641,277.456 135,280.5C 135.333,280.167 135.667,279.833 136,279.5C 138.773,282.179 141.94,282.846 145.5,281.5C 144.347,280.313 144.347,279.313 145.5,278.5C 151.988,292.147 159.988,304.813 169.5,316.5C 168.645,318.787 168.478,321.12 169,323.5C 165.291,319.825 161.291,315.825 157,311.5C 156.667,311.833 156.333,312.167 156,312.5C 153.729,310.741 152.729,308.741 153,306.5C 152.667,306.833 152.333,307.167 152,307.5C 151.333,306.167 150.667,304.833 150,303.5C 149.667,303.833 149.333,304.167 149,304.5C 147.354,302.945 147.021,301.279 148,299.5C 147.667,299.833 147.333,300.167 147,300.5C 145,297.167 143,293.833 141,290.5C 140.667,290.833 140.333,291.167 140,291.5C 137.23,289.613 135.23,287.613 134,285.5C 133.282,286.451 132.449,286.617 131.5,286C 130.54,284.581 129.707,283.081 129,281.5C 128.667,281.833 128.333,282.167 128,282.5C 127.667,280.167 127.333,277.833 127,275.5C 125.927,276.28 124.76,276.113 123.5,275C 123.833,274.667 124.167,274.333 124.5,274C 121.217,272.252 118.717,269.752 117,266.5C 116.667,267.167 116.333,267.833 116,268.5C 115.722,267.584 115.222,266.918 114.5,266.5C 113.298,262.286 112.631,257.952 112.5,253.5 Z" fill="#310148" style="opacity:1"/></g>
<g><path d="M 236.5,295.5 C 236.721,298.279 236.388,300.946 235.5,303.5C 234.835,305.698 234.168,308.031 233.5,310.5C 232.828,309.051 232.161,307.718 231.5,306.5C 231.5,306.167 231.5,305.833 231.5,305.5C 231.176,301.445 231.509,297.445 232.5,293.5C 233.086,293.291 233.586,292.957 234,292.5C 234.236,294.119 235.069,295.119 236.5,295.5 Z" fill="#2a0042" style="opacity:1"/></g>
<g><path d="M 270.5,295.5 C 272.086,299.756 273.086,303.922 273.5,308C 273.167,308.333 272.833,308.667 272.5,309C 274.173,312 274.84,315 274.5,318C 276.747,319.995 277.747,322.495 277.5,325.5C 275.418,330.083 273.751,334.75 272.5,339.5C 269.012,333.857 266.012,327.857 263.5,321.5C 264.24,312.299 266.573,303.632 270.5,295.5 Z" fill="#62018a" style="opacity:1"/></g>
<g><path d="M 235.5,303.5 C 235.387,308.518 235.053,313.518 234.5,318.5C 234.291,319.922 233.791,321.255 233,322.5C 232.529,317.156 232.029,311.822 231.5,306.5C 232.161,307.718 232.828,309.051 233.5,310.5C 234.168,308.031 234.835,305.698 235.5,303.5 Z" fill="#180324" style="opacity:1"/></g>
<g><path d="M 412.5,286.5 C 412.598,288.553 411.931,290.22 410.5,291.5C 407.094,296.637 403.928,301.971 401,307.5C 393.795,312.25 386.462,318.584 379,326.5C 374.7,331.801 370.034,336.801 365,341.5C 362.484,344.534 360.484,347.868 359,351.5C 358,351.5 357,351.5 356,351.5C 352.419,353.567 350.252,356.567 349.5,360.5C 343.852,364.993 337.852,368.993 331.5,372.5C 332.807,371.198 332.807,369.865 331.5,368.5C 333.396,367.534 335.396,367.201 337.5,367.5C 338.751,365.086 340.251,362.753 342,360.5C 342.333,361.5 342.667,362.5 343,363.5C 343.219,362.062 343.719,360.729 344.5,359.5C 345.425,358.359 346.259,358.359 347,359.5C 347.36,357.579 348.194,355.912 349.5,354.5C 349.291,353.914 348.957,353.414 348.5,353C 350.184,351.26 352.018,350.094 354,349.5C 356,346.833 358,344.167 360,341.5C 360.617,340.551 360.451,339.718 359.5,339C 365.449,332.119 370.949,325.619 376,319.5C 378.772,316.071 381.106,312.405 383,308.5C 383.604,310.686 384.77,310.852 386.5,309C 395.083,301.247 403.749,293.747 412.5,286.5 Z" fill="#1c012d" style="opacity:1"/></g>
<g><path d="M 120.5,287.5 C 121.473,287.987 122.473,288.487 123.5,289C 122.289,289.893 122.289,290.726 123.5,291.5C 124.716,290.998 125.883,290.665 127,290.5C 128.31,292.132 128.81,293.799 128.5,295.5C 129.425,296.641 130.259,296.641 131,295.5C 131.317,297.301 131.984,297.634 133,296.5C 133.317,298.301 133.984,298.634 135,297.5C 136.646,299.055 136.979,300.721 136,302.5C 137,302.5 138,302.5 139,302.5C 139.667,303.833 140.333,305.167 141,306.5C 141.333,306.167 141.667,305.833 142,305.5C 143.419,306.46 144.919,307.293 146.5,308C 145.66,309.666 146.16,309.833 148,308.5C 148.317,310.301 148.984,310.634 150,309.5C 151.13,313.31 153.13,316.643 156,319.5C 156.333,318.833 156.667,318.167 157,317.5C 158.562,319.957 159.562,322.624 160,325.5C 160.333,325.167 160.667,324.833 161,324.5C 162.113,325.76 162.28,326.927 161.5,328C 162.667,328.5 163.5,329.333 164,330.5C 164.333,330.167 164.667,329.833 165,329.5C 166.256,333.242 168.423,336.242 171.5,338.5C 170.312,339.048 169.145,339.381 168,339.5C 166.667,336.833 165.333,334.167 164,331.5C 163.667,331.833 163.333,332.167 163,332.5C 159.613,328.444 156.279,325.11 153,322.5C 152.085,323.328 151.419,324.328 151,325.5C 148.504,318.867 144.337,314.533 138.5,312.5C 137.081,310.664 135.914,308.664 135,306.5C 133.388,309.079 131.888,309.079 130.5,306.5C 130.977,305.522 131.643,304.689 132.5,304C 130.113,303.024 128.946,301.191 129,298.5C 128.282,299.451 127.449,299.617 126.5,299C 125.601,297.348 124.601,295.848 123.5,294.5C 121.707,292.574 120.707,290.241 120.5,287.5 Z" fill="#190028" style="opacity:1"/></g>
<g><path d="M 114.5,266.5 C 115.222,266.918 115.722,267.584 116,268.5C 116.333,267.833 116.667,267.167 117,266.5C 118.717,269.752 121.217,272.252 124.5,274C 124.167,274.333 123.833,274.667 123.5,275C 124.76,276.113 125.927,276.28 127,275.5C 127.333,277.833 127.667,280.167 128,282.5C 128.333,282.167 128.667,281.833 129,281.5C 129.707,283.081 130.54,284.581 131.5,286C 132.449,286.617 133.282,286.451 134,285.5C 135.23,287.613 137.23,289.613 140,291.5C 140.333,291.167 140.667,290.833 141,290.5C 143,293.833 145,297.167 147,300.5C 147.333,300.167 147.667,299.833 148,299.5C 147.021,301.279 147.354,302.945 149,304.5C 149.333,304.167 149.667,303.833 150,303.5C 150.667,304.833 151.333,306.167 152,307.5C 152.333,307.167 152.667,306.833 153,306.5C 152.729,308.741 153.729,310.741 156,312.5C 156.333,312.167 156.667,311.833 157,311.5C 161.291,315.825 165.291,319.825 169,323.5C 168.478,321.12 168.645,318.787 169.5,316.5C 181.214,329.18 193.547,341.18 206.5,352.5C 204.284,351.797 202.451,350.464 201,348.5C 200,349.833 199,349.833 198,348.5C 197.48,350.289 197.813,351.956 199,353.5C 200.666,352.66 200.833,353.16 199.5,355C 200.794,357.087 201.961,359.254 203,361.5C 204,361.5 205,361.5 206,361.5C 206.5,362.5 207,363.5 207.5,364.5C 209.987,365.576 212.32,366.91 214.5,368.5C 214.61,370.098 214.943,371.765 215.5,373.5C 217.277,374.901 218.944,376.401 220.5,378C 220.167,378.333 219.833,378.667 219.5,379C 222.057,379.685 223.891,381.185 225,383.5C 225.333,382.833 225.667,382.167 226,381.5C 227,383.167 228,384.833 229,386.5C 229.333,385.833 229.667,385.167 230,384.5C 230.687,386.568 230.52,388.568 229.5,390.5C 229.846,391.696 230.346,391.696 231,390.5C 231.72,392.112 231.554,393.612 230.5,395C 233.118,397.292 234.951,400.126 236,403.5C 237.676,404.061 239.009,405.061 240,406.5C 240.44,404.924 241.273,403.59 242.5,402.5C 241.758,400.65 240.758,399.984 239.5,400.5C 239.986,398.696 240.319,397.029 240.5,395.5C 245.435,405.305 248.768,415.639 250.5,426.5C 240.729,410.387 228.729,396.054 214.5,383.5C 213.542,382.038 212.376,380.705 211,379.5C 211.305,377.557 211.305,375.557 211,373.5C 210.667,373.833 210.333,374.167 210,374.5C 209.439,372.275 208.439,370.275 207,368.5C 206,368.5 205,368.5 204,368.5C 203.641,365.456 202.974,365.122 202,367.5C 201.259,366.359 200.425,366.359 199.5,367.5C 198.904,366.284 198.737,364.951 199,363.5C 196.833,361.333 194.667,359.167 192.5,357C 191.551,356.383 190.718,356.549 190,357.5C 189.683,355.699 189.016,355.366 188,356.5C 187.275,354.051 186.275,351.717 185,349.5C 183.16,350.833 182.66,350.666 183.5,349C 182.126,346.417 180.626,343.917 179,341.5C 178.617,342.056 178.117,342.389 177.5,342.5C 176.883,342.611 176.383,342.944 176,343.5C 174.601,340.961 173.101,339.294 171.5,338.5C 168.423,336.242 166.256,333.242 165,329.5C 164.667,329.833 164.333,330.167 164,330.5C 163.5,329.333 162.667,328.5 161.5,328C 162.28,326.927 162.113,325.76 161,324.5C 160.667,324.833 160.333,325.167 160,325.5C 159.562,322.624 158.562,319.957 157,317.5C 156.667,318.167 156.333,318.833 156,319.5C 153.13,316.643 151.13,313.31 150,309.5C 148.984,310.634 148.317,310.301 148,308.5C 146.16,309.833 145.66,309.666 146.5,308C 144.919,307.293 143.419,306.46 142,305.5C 141.667,305.833 141.333,306.167 141,306.5C 140.333,305.167 139.667,303.833 139,302.5C 138,302.5 137,302.5 136,302.5C 136.979,300.721 136.646,299.055 135,297.5C 133.984,298.634 133.317,298.301 133,296.5C 131.984,297.634 131.317,297.301 131,295.5C 130.259,296.641 129.425,296.641 128.5,295.5C 128.81,293.799 128.31,292.132 127,290.5C 125.883,290.665 124.716,290.998 123.5,291.5C 122.289,290.726 122.289,289.893 123.5,289C 122.473,288.487 121.473,287.987 120.5,287.5C 117.316,280.935 115.316,273.935 114.5,266.5 Z" fill="#26013a" style="opacity:1"/></g>
<g><path d="M 410.5,291.5 C 408.153,298.528 404.986,305.195 401,311.5C 387.346,331.568 370.179,347.901 349.5,360.5C 350.252,356.567 352.419,353.567 356,351.5C 357,351.5 358,351.5 359,351.5C 360.484,347.868 362.484,344.534 365,341.5C 370.034,336.801 374.7,331.801 379,326.5C 386.462,318.584 393.795,312.25 401,307.5C 403.928,301.971 407.094,296.637 410.5,291.5 Z" fill="#0b0415" style="opacity:1"/></g>
<g><path d="M 263.5,321.5 C 266.012,327.857 269.012,333.857 272.5,339.5C 269.397,354.055 266.897,368.721 265,383.5C 263.972,379.527 263.139,375.527 262.5,371.5C 263.156,370.378 263.489,369.045 263.5,367.5C 260.931,352.008 260.931,336.675 263.5,321.5 Z" fill="#74009f" style="opacity:1"/></g>
<g><path d="M 123.5,294.5 C 124.601,295.848 125.601,297.348 126.5,299C 127.449,299.617 128.282,299.451 129,298.5C 128.946,301.191 130.113,303.024 132.5,304C 131.643,304.689 130.977,305.522 130.5,306.5C 131.888,309.079 133.388,309.079 135,306.5C 135.914,308.664 137.081,310.664 138.5,312.5C 144.337,314.533 148.504,318.867 151,325.5C 151.419,324.328 152.085,323.328 153,322.5C 156.279,325.11 159.613,328.444 163,332.5C 163.333,332.167 163.667,331.833 164,331.5C 165.333,334.167 166.667,336.833 168,339.5C 169.145,339.381 170.312,339.048 171.5,338.5C 173.101,339.294 174.601,340.961 176,343.5C 176.383,342.944 176.883,342.611 177.5,342.5C 178.363,343.94 178.363,345.274 177.5,346.5C 177.846,347.696 178.346,347.696 179,346.5C 180.294,347.854 180.46,349.188 179.5,350.5C 182.739,352.149 184.239,354.816 184,358.5C 184.974,356.122 185.641,356.456 186,359.5C 187,359.5 188,359.5 189,359.5C 189.398,362.232 190.898,364.065 193.5,365C 192.402,365.77 192.402,366.603 193.5,367.5C 168.708,352.991 147.875,333.991 131,310.5C 127.679,305.526 125.179,300.193 123.5,294.5 Z" fill="#11011c" style="opacity:1"/></g>
<g><path d="M 418.5,260.5 C 417.883,269.603 415.883,278.27 412.5,286.5C 403.749,293.747 395.083,301.247 386.5,309C 384.77,310.852 383.604,310.686 383,308.5C 381.106,312.405 378.772,316.071 376,319.5C 370.949,325.619 365.449,332.119 359.5,339C 360.451,339.718 360.617,340.551 360,341.5C 358,344.167 356,346.833 354,349.5C 352.018,350.094 350.184,351.26 348.5,353C 348.957,353.414 349.291,353.914 349.5,354.5C 348.194,355.912 347.36,357.579 347,359.5C 346.259,358.359 345.425,358.359 344.5,359.5C 343.719,360.729 343.219,362.062 343,363.5C 342.667,362.5 342.333,361.5 342,360.5C 340.251,362.753 338.751,365.086 337.5,367.5C 335.396,367.201 333.396,367.534 331.5,368.5C 332.807,369.865 332.807,371.198 331.5,372.5C 326.473,376.853 321.14,380.853 315.5,384.5C 316.725,381.475 317.225,378.475 317,375.5C 319.939,373.604 322.439,371.27 324.5,368.5C 325.128,366.742 326.128,365.242 327.5,364C 327.043,363.586 326.709,363.086 326.5,362.5C 329.657,359.095 332.99,356.595 336.5,355C 336.714,352.271 336.381,349.438 335.5,346.5C 357.924,331.417 374.924,311.75 386.5,287.5C 387.151,288.091 387.818,288.757 388.5,289.5C 389.711,288.726 389.711,287.893 388.5,287C 389.766,286.691 390.933,286.191 392,285.5C 392.333,285.833 392.667,286.167 393,286.5C 394.667,284.372 396.834,283.039 399.5,282.5C 400.531,281.3 401.365,279.966 402,278.5C 402.414,278.957 402.914,279.291 403.5,279.5C 405.955,278.071 408.455,276.738 411,275.5C 412.876,274.381 413.709,272.714 413.5,270.5C 414.5,270.5 415.5,270.5 416.5,270.5C 416.322,266.878 416.989,263.544 418.5,260.5 Z" fill="#2d0145" style="opacity:1"/></g>
<g><path d="M 206.5,352.5 C 220.85,364.509 232.183,378.842 240.5,395.5C 240.319,397.029 239.986,398.696 239.5,400.5C 240.758,399.984 241.758,400.65 242.5,402.5C 241.273,403.59 240.44,404.924 240,406.5C 239.009,405.061 237.676,404.061 236,403.5C 234.951,400.126 233.118,397.292 230.5,395C 231.554,393.612 231.72,392.112 231,390.5C 230.346,391.696 229.846,391.696 229.5,390.5C 230.52,388.568 230.687,386.568 230,384.5C 229.667,385.167 229.333,385.833 229,386.5C 228,384.833 227,383.167 226,381.5C 225.667,382.167 225.333,382.833 225,383.5C 223.891,381.185 222.057,379.685 219.5,379C 219.833,378.667 220.167,378.333 220.5,378C 218.944,376.401 217.277,374.901 215.5,373.5C 214.943,371.765 214.61,370.098 214.5,368.5C 212.32,366.91 209.987,365.576 207.5,364.5C 207,363.5 206.5,362.5 206,361.5C 205,361.5 204,361.5 203,361.5C 201.961,359.254 200.794,357.087 199.5,355C 200.833,353.16 200.666,352.66 199,353.5C 197.813,351.956 197.48,350.289 198,348.5C 199,349.833 200,349.833 201,348.5C 202.451,350.464 204.284,351.797 206.5,352.5 Z" fill="#300146" style="opacity:1"/></g>
<g><path d="M 214.5,383.5 C 207.312,378.407 200.312,373.073 193.5,367.5C 192.402,366.603 192.402,365.77 193.5,365C 190.898,364.065 189.398,362.232 189,359.5C 188,359.5 187,359.5 186,359.5C 185.641,356.456 184.974,356.122 184,358.5C 184.239,354.816 182.739,352.149 179.5,350.5C 180.46,349.188 180.294,347.854 179,346.5C 178.346,347.696 177.846,347.696 177.5,346.5C 178.363,345.274 178.363,343.94 177.5,342.5C 178.117,342.389 178.617,342.056 179,341.5C 180.626,343.917 182.126,346.417 183.5,349C 182.66,350.666 183.16,350.833 185,349.5C 186.275,351.717 187.275,354.051 188,356.5C 189.016,355.366 189.683,355.699 190,357.5C 190.718,356.549 191.551,356.383 192.5,357C 194.667,359.167 196.833,361.333 199,363.5C 198.737,364.951 198.904,366.284 199.5,367.5C 200.425,366.359 201.259,366.359 202,367.5C 202.974,365.122 203.641,365.456 204,368.5C 205,368.5 206,368.5 207,368.5C 208.439,370.275 209.439,372.275 210,374.5C 210.333,374.167 210.667,373.833 211,373.5C 211.305,375.557 211.305,377.557 211,379.5C 212.376,380.705 213.542,382.038 214.5,383.5 Z" fill="#1d022d" style="opacity:1"/></g>
<g><path d="M 315.5,384.5 C 306.318,392.737 297.651,401.403 289.5,410.5C 289.523,408.073 290.023,405.74 291,403.5C 292.156,404.993 292.99,404.826 293.5,403C 292.502,399.075 293.502,398.241 296.5,400.5C 297.452,398.955 297.785,397.288 297.5,395.5C 302.906,395.427 306.24,392.76 307.5,387.5C 309.745,385.639 312.412,384.639 315.5,384.5 Z" fill="#341547" style="opacity:1"/></g>
<g><path d="M 335.5,346.5 C 336.381,349.438 336.714,352.271 336.5,355C 332.99,356.595 329.657,359.095 326.5,362.5C 326.709,363.086 327.043,363.586 327.5,364C 326.128,365.242 325.128,366.742 324.5,368.5C 322.439,371.27 319.939,373.604 317,375.5C 317.225,378.475 316.725,381.475 315.5,384.5C 312.412,384.639 309.745,385.639 307.5,387.5C 306.24,392.76 302.906,395.427 297.5,395.5C 297.785,397.288 297.452,398.955 296.5,400.5C 293.502,398.241 292.502,399.075 293.5,403C 292.99,404.826 292.156,404.993 291,403.5C 290.023,405.74 289.523,408.073 289.5,410.5C 282.115,420.6 276.281,431.6 272,443.5C 271.539,438.816 271.705,434.149 272.5,429.5C 274.535,423.571 276.701,417.571 279,411.5C 291.587,384.413 310.42,362.746 335.5,346.5 Z" fill="#430264" style="opacity:1"/></g>
</svg>